# xmcd
#
# Track frame offsets: 
#        300
#        21578
#        45976
#        64577
#        84935
#        106754
#        120767
#        135977
#        155781
#        171510
#        192504
#
# Disc length: 2878 seconds
#
# Revision: 0
# Processed by: cddbd v1.5.2PL0 Copyright (c) Steve Scherf et al.
# Submitted via: ExactAudioCopy v0.99pb5
#
DISCID=890b3a0b
DTITLE=Alannah Myles - Black Velvet
DYEAR=2007
DGENRE=Pop Female Singer-Songwriter
TTITLE0=Black Velvet
TTITLE1=Comment Ca Va
TTITLE2=Prime Of My Life
TTITLE3=Only Wings
TTITLE4=Leave It Alone
TTITLE5=Anywhere But Home
TTITLE6=Faces In The Crowd
TTITLE7=Give Me Love
TTITLE8=What Is Love
TTITLE9=I Love You
TTITLE10=Trouble
EXTD=
EXTT0=
EXTT1=
EXTT2=
EXTT3=
EXTT4=
EXTT5=
EXTT6=
EXTT7=
EXTT8=
EXTT9=
EXTT10=
PLAYORDER=
